<svg id="Layer_1" data-name="Layer 1" xmlns="http://www.w3.org/2000/svg" viewBox="0 0 234.83 226.29"><defs><style>.cls-1{fill:#fff;stroke:#010101;stroke-width:25px;}.cls-1,.cls-2{stroke-miterlimit:10;}.cls-2,.cls-3{fill:#010101;}.cls-2{stroke:#fff;stroke-width:12px;}</style></defs><polygon class="cls-1" points="196.44 147.52 38.74 147.52 117.59 23.32 196.44 147.52"/><polygon class="cls-2" points="16.95 75.58 74.61 138.69 106.48 127.04 88.7 147.88 117.24 202.03 117.24 123.98 90.27 90.84 16.95 75.58"/><polygon class="cls-2" points="217.88 75.58 160.22 138.69 128.35 127.04 146.13 147.88 117.59 202.03 117.59 123.98 144.56 90.84 217.88 75.58"/><polygon class="cls-3" points="117.45 98.47 125.64 94.78 121.62 101.75 117.59 108.72 113.57 101.75 109.55 94.78 117.45 98.47"/><polygon class="cls-3" points="118.05 85.46 93.05 88.42 105.32 82.82 117.59 77.22 129.87 82.82 142.14 88.42 118.05 85.46"/></svg>